<svg width="8" height="5" viewBox="0 0 8 5" fill="none" xmlns="http://www.w3.org/2000/svg">
<path d="M4.00169 3.31982L1.00878 0.135898C0.926569 0.0482286 0.81665 0 0.699447 0C0.582179 0 0.472325 0.0482286 0.389984 0.135898L0.12787 0.41489C0.0453984 0.502421 0 0.61943 0 0.744118C0 0.868807 0.0453984 0.985676 0.12787 1.07328L3.69119 4.86424C3.77379 4.95218 3.88416 5.00034 4.0015 5C4.11935 5.00034 4.22959 4.95225 4.31226 4.86424L7.87213 1.07681C7.9546 0.989205 8 0.872336 8 0.747578C8 0.62289 7.9546 0.50602 7.87213 0.41835L7.61002 0.139427C7.43941 -0.0420701 7.16169 -0.0420701 6.99115 0.139427L4.00169 3.31982Z" fill="white"/>
</svg>
