<svg width="18" height="18" viewBox="0 0 18 18" fill="none" xmlns="http://www.w3.org/2000/svg">
<path d="M17.9999 12.2952C17.9999 10.1054 16.7436 8.15098 14.862 7.20032C14.8036 11.3991 11.3994 14.8032 7.20068 14.8617C8.15135 16.7432 10.1057 17.9995 12.2956 17.9995C13.3223 17.9995 14.3208 17.726 15.1981 17.2065L17.9749 17.9746L17.2068 15.1977C17.7264 14.3204 17.9999 13.322 17.9999 12.2952Z" fill="url(#paint0_linear_1_133)"/>
<path fill-rule="evenodd" clip-rule="evenodd" d="M13.4997 6.75023C13.4997 3.02828 10.4718 0.000366211 6.74986 0.000366211C3.02792 0.000366211 0 3.02828 0 6.75023C0 7.96323 0.322874 9.14427 0.935983 10.1811L0.0248157 13.4751L3.31896 12.5641C4.35583 13.1772 5.53686 13.5001 6.74986 13.5001C10.4718 13.5001 13.4997 10.4722 13.4997 6.75023ZM5.71145 5.17872H4.67573C4.67573 4.03645 5.60491 3.10726 6.74718 3.10726C7.88945 3.10726 8.81863 4.03645 8.81863 5.17872C8.81863 5.75848 8.57319 6.31572 8.14501 6.70736L7.26504 7.51274V8.32042H6.22932V7.05664L7.44576 5.94324C7.66315 5.74432 7.78291 5.47285 7.78291 5.17872C7.78291 4.60758 7.31831 4.14299 6.74718 4.14299C6.17605 4.14299 5.71145 4.60758 5.71145 5.17872ZM7.27003 9.35658H6.2343V10.3923H7.27003V9.35658Z" fill="url(#paint1_linear_1_133)"/>
<defs>
<linearGradient id="paint0_linear_1_133" x1="7.20068" y1="7.20032" x2="7.20068" y2="17.9995" gradientUnits="userSpaceOnUse">
<stop stop-color="#A42689"/>
<stop offset="1" stop-color="#3F54B5"/>
</linearGradient>
<linearGradient id="paint1_linear_1_133" x1="0" y1="0.000366211" x2="0" y2="13.5001" gradientUnits="userSpaceOnUse">
<stop stop-color="#A42689"/>
<stop offset="1" stop-color="#3F54B5"/>
</linearGradient>
</defs>
</svg>
