<svg width="38" height="38" viewBox="0 0 38 38" fill="none" xmlns="http://www.w3.org/2000/svg">
<circle cx="19" cy="19" r="18" fill="#D8D8D8" fill-opacity="0.01" stroke="white"/>
<path d="M12.447 20.3802H15.485V32.5645C15.485 32.8051 15.6851 33 15.932 33H21.083C21.33 33 21.53 32.8051 21.53 32.5645V20.4376H25.0225C25.2496 20.4376 25.4406 20.2716 25.4665 20.0518L25.997 15.5662C26.0115 15.4428 25.9714 15.3192 25.8866 15.2266C25.8018 15.1339 25.6804 15.0809 25.553 15.0809H21.5302V12.2691C21.5302 11.4214 21.9987 10.9916 22.9228 10.9916C23.0545 10.9916 25.553 10.9916 25.553 10.9916C25.7999 10.9916 26 10.7966 26 10.5561V6.43871C26 6.19815 25.7999 6.00322 25.553 6.00322H21.9282C21.9026 6.002 21.8458 6 21.7621 6C21.1332 6 18.947 6.12028 17.2201 7.66799C15.3067 9.3831 15.5727 11.4367 15.6363 11.7927V15.0808H12.447C12.2001 15.0808 12 15.2757 12 15.5163V19.9446C12 20.1852 12.2001 20.3802 12.447 20.3802Z" fill="white"/>
</svg>
