<svg width="15" height="21" viewBox="0 0 15 21" fill="none" xmlns="http://www.w3.org/2000/svg">
<path d="M7.84161 10.1613C9.91256 10.1613 11.5916 7.88663 11.5916 5.08067C11.5916 2.27466 11.0403 0 7.84161 0C4.6429 0 4.09155 2.27466 4.09155 5.08067C4.09155 7.88663 5.77055 10.1613 7.84161 10.1613Z" fill="white"/>
<path d="M0.69913 18.3458C0.69673 18.291 0.69793 18.1513 0.69913 18.3458V18.3458Z" fill="black"/>
<path d="M14.3339 18.3687C14.3352 18.0403 14.3377 18.3214 14.3339 18.3687V18.3687Z" fill="black"/>
<path d="M14.9928 17.7532C14.9226 12.5722 14.3441 11.0959 9.91739 10.1614C9.91739 10.1614 9.29426 11.0901 7.84187 11.0901C6.38948 11.0901 5.76625 10.1614 5.76625 10.1614C1.38783 11.0857 0.774171 12.5401 0.693483 17.5849C0.686867 17.9968 0.683801 18.0185 0.682617 17.9706C0.682886 18.0602 0.683209 18.226 0.683209 18.515C0.683209 18.515 1.7371 21.0001 7.84187 21.0001C13.9465 21.0001 15.0005 18.515 15.0005 18.515C15.0005 18.3293 15.0006 18.2002 15.0008 18.1123C14.9996 18.1419 14.9972 18.0846 14.9928 17.7532Z" fill="white"/>
</svg>
