<svg width="18" height="18" viewBox="0 0 18 18" fill="none" xmlns="http://www.w3.org/2000/svg">
<path fill-rule="evenodd" clip-rule="evenodd" d="M17.4902 9.62148L17.7687 9.994C18.1941 10.5657 18.0134 11.3697 17.3848 11.7091L16.9745 11.9341C16.5266 12.1775 16.2856 12.6754 16.3797 13.1696L16.4663 13.6233C16.5981 14.3167 16.0786 14.9659 15.3596 15.0064L14.8891 15.0323C14.3772 15.0581 13.9405 15.4048 13.805 15.8916L13.6808 16.3379C13.4888 17.0166 12.736 17.3817 12.0697 17.1125L11.6331 16.9354C11.1588 16.7436 10.613 16.869 10.2742 17.2489L9.96552 17.5956C9.49499 18.1304 8.65557 18.1341 8.17375 17.6104L7.86132 17.2674C7.51878 16.8912 6.9692 16.7731 6.49868 16.9723L6.06579 17.153C5.40329 17.4333 4.64292 17.083 4.44342 16.4043L4.31167 15.9617C4.16863 15.4785 3.72445 15.1392 3.21252 15.1171L2.74199 15.0986C2.02302 15.0691 1.49227 14.4274 1.61272 13.734L1.69177 13.2803C1.77835 12.7824 1.52991 12.2881 1.07821 12.0521L0.664142 11.8345C0.0279889 11.4988 -0.163986 10.6985 0.250078 10.1231L0.521101 9.74689C0.818474 9.33379 0.810946 8.78423 0.509809 8.37852L0.231257 8.006C-0.1941 7.43799 -0.0134175 6.63394 0.615207 6.29093L1.02551 6.06594C1.47345 5.82251 1.71436 5.32459 1.62025 4.83035L1.53368 4.37669C1.40193 3.68328 1.92139 3.03414 2.64036 2.99357L3.11088 2.96775C3.62282 2.94193 4.05946 2.59523 4.19498 2.10837L4.3192 1.66208C4.51117 0.983429 5.26401 0.618285 5.93028 0.887533L6.36693 1.06457C6.84122 1.25637 7.38703 1.13096 7.72581 0.751065L8.03448 0.404363C8.50877 -0.130444 9.34819 -0.134133 9.82625 0.389609L10.1387 0.732623C10.4812 1.10883 11.0308 1.22686 11.5013 1.02769L11.9342 0.846961C12.5967 0.566649 13.3571 0.917039 13.5566 1.59569L13.6883 2.03829C13.8314 2.52146 14.2756 2.86079 14.7875 2.88292L15.258 2.90136C15.977 2.93086 16.5077 3.57263 16.3873 4.26604L16.3082 4.7197C16.2216 5.21762 16.4701 5.71186 16.9218 5.94791L17.3359 6.16552C17.972 6.50116 18.164 7.30153 17.7499 7.87691L17.4789 8.25311C17.1815 8.66621 17.1891 9.21577 17.4902 9.62148ZM6.55707 5.65723C5.53321 5.65723 4.70508 6.46866 4.70508 7.47188C4.70508 8.47142 5.53321 9.28654 6.55707 9.28654C7.58094 9.28654 8.40907 8.47511 8.40907 7.47188C8.40907 6.46866 7.58094 5.65723 6.55707 5.65723ZM6.9138 12.1521C6.75571 12.3402 6.46963 12.3661 6.27765 12.2112C6.08568 12.0562 6.05933 11.7759 6.21742 11.5878L11.077 5.85248C11.2351 5.66438 11.5212 5.63856 11.7132 5.79347C11.9052 5.94838 11.9315 6.22869 11.7734 6.4168L6.9138 12.1521ZM9.57715 10.525C9.57715 11.5282 10.4053 12.3396 11.4291 12.3396C12.453 12.3396 13.2811 11.5282 13.2811 10.525C13.2811 9.52176 12.453 8.71033 11.4291 8.71033C10.4053 8.71033 9.57715 9.52176 9.57715 10.525Z" fill="url(#paint0_linear_1_167)"/>
<defs>
<linearGradient id="paint0_linear_1_167" x1="0" y1="0" x2="0" y2="18" gradientUnits="userSpaceOnUse">
<stop stop-color="#A42689"/>
<stop offset="1" stop-color="#3F54B5"/>
</linearGradient>
</defs>
</svg>
