<svg width="18" height="18" viewBox="0 0 18 18" fill="none" xmlns="http://www.w3.org/2000/svg">
<path fill-rule="evenodd" clip-rule="evenodd" d="M0 9C0 4.02943 4.0295 0 9 0C13.9705 0 18 4.02943 18 9C18 13.9706 13.9705 18 9 18C4.0295 18 0 13.9706 0 9ZM7.61062 12.2895L12.1106 9.47696C12.275 9.37399 12.375 9.19378 12.375 8.99989C12.375 8.80601 12.275 8.62583 12.1106 8.52282L7.61062 5.71032C7.4372 5.60183 7.21856 5.59578 7.03976 5.69549C6.86095 5.79463 6.75 5.98278 6.75 6.18739V11.8124C6.75 12.017 6.86095 12.2052 7.03976 12.3043C7.12477 12.3515 7.2187 12.3749 7.3125 12.3749C7.41604 12.3749 7.51957 12.3463 7.61062 12.2895Z" fill="url(#paint0_linear_1_146)"/>
<defs>
<linearGradient id="paint0_linear_1_146" x1="0" y1="0" x2="0" y2="18" gradientUnits="userSpaceOnUse">
<stop stop-color="#A42689"/>
<stop offset="1" stop-color="#3F54B5"/>
</linearGradient>
</defs>
</svg>
