<svg width="16" height="18" viewBox="0 0 16 18" fill="none" xmlns="http://www.w3.org/2000/svg">
<path d="M9.99782 12H5.98473C2.68702 12 0 14.6939 0 18H16C15.9826 14.7114 13.2955 12 9.99782 12Z" fill="url(#paint0_linear_1_156)"/>
<path d="M9.13341 9.23048C9.43593 9.23048 9.72165 9.33426 9.94013 9.52452H11.3351C12.0242 8.78077 12.4443 7.79486 12.4443 6.68788C12.4443 4.40473 10.646 2.57129 8.44434 2.57129C6.24266 2.57129 4.44434 4.40473 4.44434 6.68788C4.44434 8.22728 5.26787 9.57641 6.49476 10.2856C6.62921 9.68019 7.15022 9.23048 7.75526 9.23048H9.13341Z" fill="url(#paint1_linear_1_156)"/>
<path d="M1.89899 7.40215C1.95091 7.79841 2.15861 8.16297 2.45284 8.43243C2.67785 8.63849 2.97208 8.79699 3.30094 8.89209C3.28363 8.82869 3.28363 8.76529 3.28363 8.71774V5.64276C3.28363 5.57935 3.28363 5.51595 3.30094 5.45255C2.97208 5.5318 2.69516 5.69031 2.45284 5.91221C2.43554 5.92806 2.40092 5.95976 2.38361 5.97561V5.84881C2.38361 5.54765 2.41823 5.24649 2.47015 4.96119C2.52208 4.66003 2.60862 4.37472 2.72977 4.10526C2.83362 3.81995 2.97208 3.5505 3.14516 3.29689C3.30094 3.04328 3.49132 2.78968 3.69902 2.56777C3.71633 2.55192 3.73364 2.52022 3.73364 2.50437C3.88941 2.52022 4.04518 2.47267 4.14903 2.37757C5.20481 1.41069 6.58945 0.935176 7.95679 0.935176C9.32412 0.935176 10.7261 1.41069 11.7645 2.37757C11.8857 2.48852 12.0415 2.52022 12.1799 2.50437C12.1972 2.52022 12.1972 2.55192 12.2146 2.56777C12.4222 2.78968 12.6126 3.04328 12.7684 3.29689C12.9242 3.5505 13.0626 3.81995 13.1838 4.10526C13.2876 4.39057 13.3742 4.67588 13.4434 4.97704C13.4953 5.26234 13.53 5.5635 13.53 5.86466V5.99146C13.5127 5.95976 13.478 5.94391 13.4607 5.92806C13.2357 5.72201 12.9415 5.5635 12.6126 5.4684C12.6299 5.5318 12.6299 5.5952 12.6299 5.65861V8.71774C12.6299 8.78114 12.6299 8.84454 12.6126 8.89209C12.6992 8.87624 12.7857 8.84454 12.8723 8.81284V9.81142C12.8723 9.92237 12.8549 10.0333 12.8376 10.1126C12.8203 10.1918 12.7857 10.2394 12.7511 10.2869C12.7165 10.3186 12.6646 10.3503 12.6126 10.3662C12.5434 10.382 12.4742 10.3979 12.3876 10.3979H12.3703H9.18565C9.0818 10.2394 8.90872 10.1284 8.68372 10.1284H7.26447C6.95292 10.1284 6.71061 10.3662 6.71061 10.6356C6.72792 10.921 6.97023 11.1429 7.28177 11.1429H8.70103C8.90872 11.1429 9.09911 11.0319 9.20296 10.8734H12.4222H12.5434C12.6646 10.8734 12.7684 10.8417 12.8723 10.81C13.0107 10.7624 13.1146 10.699 13.2184 10.6039C13.305 10.5088 13.3742 10.3979 13.4261 10.2552C13.4607 10.1284 13.4953 9.96992 13.4953 9.79557V8.52753V8.47998C13.5127 8.46413 13.53 8.44828 13.5473 8.43243C13.8415 8.16297 14.0492 7.79841 14.1011 7.40215C14.1184 7.3863 14.1357 7.3863 14.1357 7.37045C14.1877 7.3229 14.2223 7.24365 14.2223 7.18025V5.86466C14.2223 5.5318 14.1877 5.19894 14.1357 4.88193C14.0319 4.54908 13.9453 4.23207 13.8242 3.91506C13.703 3.59805 13.5473 3.29689 13.3569 3.01158C13.1838 2.72627 12.9761 2.45682 12.7338 2.20321C12.7165 2.17151 12.6819 2.15566 12.6473 2.13981C12.6819 1.99715 12.6299 1.8228 12.5088 1.71185C11.2626 0.570616 9.63566 0 7.9914 0C6.34714 0 4.72019 0.570616 3.45671 1.71185C3.33555 1.8228 3.28363 1.99715 3.31824 2.13981C3.28363 2.15566 3.26632 2.17151 3.2317 2.20321C2.98939 2.45682 2.7817 2.72627 2.60862 3.01158C2.43554 3.29689 2.27976 3.59805 2.1413 3.91506C2.02014 4.23207 1.9163 4.54908 1.86437 4.88193C1.79514 5.19894 1.77783 5.5318 1.77783 5.86466V7.18025C1.77783 7.2595 1.81245 7.3229 1.86437 7.37045C1.88168 7.3863 1.89899 7.3863 1.89899 7.40215Z" fill="url(#paint2_linear_1_156)"/>
<defs>
<linearGradient id="paint0_linear_1_156" x1="0" y1="12" x2="0" y2="18" gradientUnits="userSpaceOnUse">
<stop stop-color="#A42689"/>
<stop offset="1" stop-color="#3F54B5"/>
</linearGradient>
<linearGradient id="paint1_linear_1_156" x1="4.44434" y1="2.57129" x2="4.44434" y2="10.2856" gradientUnits="userSpaceOnUse">
<stop stop-color="#A42689"/>
<stop offset="1" stop-color="#3F54B5"/>
</linearGradient>
<linearGradient id="paint2_linear_1_156" x1="1.77783" y1="0" x2="1.77783" y2="11.1429" gradientUnits="userSpaceOnUse">
<stop stop-color="#A42689"/>
<stop offset="1" stop-color="#3F54B5"/>
</linearGradient>
</defs>
</svg>
