<svg width="18" height="18" viewBox="0 0 18 18" fill="none" xmlns="http://www.w3.org/2000/svg">
<path fill-rule="evenodd" clip-rule="evenodd" d="M0.541065 0H17.4591C17.7578 0 18.0001 0.236069 18 0.527344V8.60381C18 11.4467 16.4153 14.069 13.8642 15.4473L9.26236 17.9338C9.18078 17.9779 9.09032 18 9 18C8.90968 18 8.81922 17.9779 8.73764 17.9338L4.13577 15.4473C1.58473 14.069 0 11.4467 0 8.60381V0.527344C0 0.236069 0.242211 0 0.541065 0ZM14.2118 9.42098C14.3167 9.54499 14.4709 9.6131 14.6296 9.6131C14.6906 9.6131 14.7525 9.60308 14.8122 9.5822C15.0272 9.50695 15.1707 9.30837 15.1707 9.08576V5.82062C15.1707 5.52935 14.9283 5.29328 14.6296 5.29328C14.3307 5.29328 14.0885 5.52935 14.0885 5.82062V7.61606L12.2879 5.4854C12.1427 5.3136 11.9024 5.24906 11.6876 5.32418C11.4725 5.39943 11.3291 5.59801 11.3291 5.82062V9.08576C11.3291 9.37703 11.5715 9.6131 11.8702 9.6131C12.169 9.6131 12.4112 9.37703 12.4112 9.08576V7.29032L14.2118 9.42098ZM9.54389 7.98047H8.16319V9.08569C8.16319 9.37697 7.92097 9.61304 7.62212 9.61304C7.32327 9.61304 7.08105 9.37697 7.08105 9.08569V5.82056C7.08105 5.52928 7.32327 5.29321 7.62212 5.29321H9.54389C10.3041 5.29321 10.9225 5.89595 10.9225 6.63684C10.9225 7.37773 10.3041 7.98047 9.54389 7.98047ZM5.63324 5.61924L4.75387 7.70033L3.8745 5.61924C3.76065 5.34994 3.44446 5.22154 3.16815 5.33236C2.89184 5.44332 2.7601 5.75149 2.87395 6.02079L4.25352 9.28593C4.33708 9.48355 4.53462 9.6125 4.75387 9.6125C4.97311 9.6125 5.17066 9.48355 5.25421 9.28593L6.63379 6.02079C6.74764 5.75149 6.61589 5.44332 6.33958 5.33236C6.06313 5.2214 5.74695 5.34994 5.63324 5.61924Z" fill="url(#paint0_linear_1_119)"/>
<path d="M9.57948 6.30029H8.09766V7.20029H9.57948C9.7549 7.20029 9.89766 6.99839 9.89766 6.75029C9.89766 6.50219 9.7549 6.30029 9.57948 6.30029Z" fill="url(#paint1_linear_1_119)"/>
<defs>
<linearGradient id="paint0_linear_1_119" x1="0" y1="0" x2="0" y2="18" gradientUnits="userSpaceOnUse">
<stop stop-color="#A42689"/>
<stop offset="1" stop-color="#3F54B5"/>
</linearGradient>
<linearGradient id="paint1_linear_1_119" x1="8.09766" y1="6.30029" x2="8.09766" y2="7.20029" gradientUnits="userSpaceOnUse">
<stop stop-color="#A42689"/>
<stop offset="1" stop-color="#3F54B5"/>
</linearGradient>
</defs>
</svg>
